PathFileType	4	(X/Y/Z)	./resultDataOpenSim/trcMotMarkerGrf/sub09/qtm-04-08.trc
DataRate	CameraRate	NumFrames	NumMarkers	Units	OrigDataRate	OrigDataStartFrame	OrigNumFrames
250.000000	250.000000	11	24	m	250.000000	374	498
Frame#	Time	L.Toe.Tip			R.Toe.Tip			L.Ankle.Lat			R.Ankle.Lat			L.Ankle.Med			R.Ankle.Med			L.Heel			R.Heel			L.Knee.Lat			R.Knee.Lat			L.Knee.Med			R.Knee.Med			L.Thigh.Upper			R.Thigh.Upper			L.ASIS			R.ASIS			V.Sacral			L.Acromium			R.Acromium			C7			L.Elbow			R.Elbow			L.Wrist.Lat			R.Wrist.Lat
		X1	Y1	Z1	X2	Y2	Z2	X3	Y3	Z3	X4	Y4	Z4	X5	Y5	Z5	X6	Y6	Z6	X7	Y7	Z7	X8	Y8	Z8	X9	Y9	Z9	X10	Y10	Z10	X11	Y11	Z11	X12	Y12	Z12	X13	Y13	Z13	X14	Y14	Z14	X15	Y15	Z15	X16	Y16	Z16	X17	Y17	Z17	X18	Y18	Z18	X19	Y19	Z19	X20	Y20	Z20	X21	Y21	Z21	X22	Y22	Z22	X23	Y23	Z23	X24	Y24	Z24

374	1.492	0.93466974	0.13468055	-0.0076461181	1.0336923	0.039395163	0.1177082	0.85696408	0.26974903	-0.039529564	0.88574015	0.060793898	0.15152386	0.88462236	0.25753115	0.054530223	0.90100782	0.10168981	0.062061652	0.7510334	0.29927028	0.017267432	0.81786824	0.045394108	0.10036147	1.160144	0.53661225	-0.052208164	1.0033588	0.50408235	0.2217722	1.164858	0.52738572	0.075137828	0.98564102	0.49528414	0.095724041	0.96670263	0.90002787	-0.08609131	0.95782022	0.91075393	0.28544915	1.0314423	0.9907127	-0.028878844	1.0448146	0.99712075	0.20899425	0.86653876	1.0435735	0.092399726	1.017974	1.443547	-0.080171449	1.0158971	1.4546156	0.25130037	0.94737978	1.4975086	0.088206387	0.86650944	1.1077253	-0.120276	0.90173982	1.0987848	0.35189171	0.96712937	0.86964651	-0.17124014	1.132148	0.94635999	0.31097884
375	1.496	0.95169642	0.13197208	-0.0071717724	1.0338014	0.039392004	0.11771459	0.87028452	0.26466706	-0.039285381	0.88581805	0.061143358	0.15152578	0.89812137	0.25318419	0.054783817	0.90106675	0.10207259	0.062030937	0.76158385	0.29278469	0.018783107	0.81795746	0.045922672	0.10031481	1.1677953	0.53840563	-0.052070741	1.0045512	0.50423182	0.22193874	1.1727007	0.52914346	0.075123732	0.98709527	0.49550476	0.096019044	0.97250406	0.90058964	-0.086262157	0.96210096	0.91110908	0.28571015	1.036745	0.99135485	-0.028802744	1.0496401	0.99756627	0.20912138	0.87165586	1.0437327	0.092074201	1.0224083	1.4440091	-0.080169436	1.0207569	1.4552042	0.25132686	0.95212329	1.4979677	0.088305344	0.86986393	1.1087873	-0.1204031	0.90741668	1.0988788	0.35203865	0.96920281	0.87041218	-0.17243565	1.1393304	0.94881404	0.3099212
376	1.5	0.96885522	0.12917491	-0.0066650631	1.0338485	0.039334476	0.11772719	0.8837627	0.25939182	-0.039045159	0.88589213	0.061501064	0.1515339	0.91150073	0.2487385	0.055115983	0.90115529	0.10247203	0.062061863	0.77784906	0.2838563	0.018441994	0.81799207	0.046452668	0.10018713	1.1753086	0.54007791	-0.051931753	1.0057894	0.50436656	0.22209597	1.1804219	0.53080207	0.075085273	0.98872317	0.49562041	0.096327875	0.97800354	0.90107928	-0.086347735	0.96627038	0.91131908	0.28629581	1.0420412	0.99192253	-0.028727381	1.0544591	0.9979747	0.20926167	0.87702497	1.0439653	0.091988834	1.0268738	1.4444075	-0.080174473	1.0256221	1.455732	0.25135362	0.95687951	1.4983969	0.088383609	0.8732535	1.1097865	-0.120553	0.91306462	1.0989075	0.35215324	0.9713338	0.8711297	-0.1736165	1.1464618	0.95119923	0.30886057
377	1.504	0.98602778	0.12632735	-0.0061052094	1.0337874	0.039254371	0.11778554	0.8974066	0.2539442	-0.038799546	0.88597723	0.061857447	0.1515519	0.92463288	0.24421416	0.05557788	0.90133222	0.10290276	0.06221455	0.79977325	0.27285676	0.015166321	0.81796135	0.046968077	0.099949979	1.1827589	0.54157649	-0.051788289	1.0070142	0.50449132	0.22228231	1.1880448	0.53235694	0.075036043	0.99039316	0.49569641	0.096615759	0.98328411	0.90150084	-0.08637458	0.97039401	0.91147818	0.28695327	1.0473318	0.99242221	-0.028653772	1.0592737	0.99834515	0.20940784	0.88246216	1.0442133	0.092043469	1.0313733	1.4447449	-0.080194379	1.0304865	1.456198	0.25138095	0.96164502	1.4987864	0.088450559	0.87668291	1.1107247	-0.12071988	0.91872395	1.0988834	0.35225812	0.97351922	0.87180141	-0.17478033	1.1535607	0.95352275	0.30779905
378	1.508	1.0032162	0.12344936	-0.0054889983	1.0337101	0.039231968	0.1178873	0.91121355	0.24834513	-0.03854316	0.88607891	0.062201888	0.15158615	0.93772009	0.2395876	0.056107823	0.90151646	0.10334776	0.062435687	0.82360802	0.26145655	0.0099843249	0.81788394	0.047498629	0.099691147	1.1901409	0.54288952	-0.051656819	1.0082027	0.50460227	0.22249505	1.1955457	0.53379197	0.074979589	0.99194174	0.49581208	0.096840188	0.98852485	0.90185802	-0.08640687	0.97457346	0.91172548	0.28727017	1.0526249	0.99286627	-0.028583334	1.064101	0.99867907	0.20955095	0.88779752	1.0444052	0.092051268	1.0358989	1.4450359	-0.080235174	1.0353436	1.4566003	0.25140062	0.96641454	1.4991132	0.088517417	0.88014494	1.1116104	-0.12088957	0.9243991	1.0988066	0.3523546	0.97575795	0.87243044	-0.17592651	1.1606444	0.95578893	0.30674377
379	1.512	1.0204682	0.12054346	-0.0048303353	1.0337557	0.039307759	0.11799265	0.92517867	0.24260686	-0.038276289	0.88619825	0.062530768	0.15163562	0.951249	0.23480012	0.056543582	0.90165768	0.10373132	0.062648962	0.84454439	0.25117915	0.0057732057	0.81780834	0.048076556	0.09957615	1.1973879	0.54402519	-0.051551095	1.0093692	0.50470243	0.22271366	1.2028915	0.53509386	0.074914017	0.99327248	0.4960259	0.096972777	0.99386327	0.90215133	-0.086496776	0.97884702	0.91209269	0.28711201	1.0579314	0.99325892	-0.028518124	1.0689758	0.99898663	0.20969022	0.89298492	1.0445314	0.091897077	1.0404411	1.4452961	-0.080299918	1.0401941	1.4569395	0.25140851	0.97118666	1.4993687	0.088585312	0.88363124	1.1124438	-0.12105423	0.93007747	1.098674	0.35243679	0.97805461	0.87301573	-0.17705925	1.167704	0.95798961	0.30570142
380	1.516	1.0378093	0.11761616	-0.0041484709	1.0339371	0.039441848	0.11807588	0.93930055	0.23673683	-0.037998825	0.88633313	0.062846702	0.15169191	0.96556136	0.22982042	0.056771651	0.90183314	0.10399414	0.062838795	0.86091207	0.24217392	0.0043624193	0.81776342	0.048682209	0.099684874	1.2044618	0.5449716	-0.051463313	1.0105495	0.50480263	0.22292384	1.2100561	0.53625627	0.074834862	0.99441607	0.49634697	0.09702372	0.99932365	0.90238001	-0.086651115	0.98318866	0.91249921	0.2866585	1.0632551	0.99360074	-0.028458508	1.0739237	0.99928059	0.20983399	0.89809062	1.0446235	0.091608611	1.0449958	1.4455206	-0.080379651	1.0450458	1.4572218	0.25141085	0.97597112	1.4995668	0.08864612	0.88714693	1.1132123	-0.12121413	0.93575145	1.0984846	0.35250185	0.98041376	0.87355427	-0.17818251	1.1747067	0.96010949	0.30467264
381	1.52	1.0552363	0.11468614	-0.0034656463	1.0341438	0.039557535	0.11813582	0.95357301	0.23074935	-0.037705365	0.88647465	0.063154088	0.15175002	0.98052881	0.22468926	0.056831983	0.90210637	0.10417128	0.062977347	0.87451477	0.23382505	0.0049510204	0.81774318	0.049261569	0.099944893	1.2113795	0.54570848	-0.051370549	1.0118028	0.50487032	0.22310991	1.2170114	0.53727392	0.074733763	0.99556178	0.49669595	0.097043972	1.0048563	0.90254662	-0.086847752	0.98756405	0.91286279	0.28612256	1.0685903	0.99389535	-0.028398986	1.0789294	0.99955761	0.20999414	0.90318711	1.0446853	0.091281205	1.0495604	1.4456867	-0.080452791	1.0499073	1.4574555	0.25141671	0.98077083	1.4997191	0.088699293	0.89070456	1.1139085	-0.12137737	0.94142051	1.09824	0.35254933	0.98283313	0.87404544	-0.17929574	1.1816288	0.9621401	0.3036527
382	1.524	1.0727399	0.11177359	-0.002799765	1.0342774	0.039610883	0.11817724	0.96798648	0.22466314	-0.037389447	0.88660804	0.063458757	0.15181174	0.99571322	0.21949137	0.05686307	0.90234988	0.1043354	0.062942968	0.88764745	0.22566594	0.0058628814	0.81773726	0.049786729	0.10022823	1.2181663	0.54624542	-0.051259295	1.0132061	0.50485992	0.22326199	1.2237374	0.5381438	0.074605625	0.99691472	0.49696734	0.097074482	1.0104353	0.90265846	-0.087078394	0.99194538	0.91315038	0.28562123	1.0739276	0.99414026	-0.028331571	1.0839268	0.99978143	0.21017902	0.9083036	1.0446894	0.090987091	1.0541333	1.4457815	-0.080505045	1.0547876	1.4576469	0.2514344	0.98557933	1.49982	0.088769746	0.89430815	1.1145462	-0.12155968	0.94708923	1.0979456	0.35258247	0.98530898	0.87449129	-0.18039668	1.1884728	0.96408055	0.30263645
383	1.528	1.0903355	0.10888741	-0.002151697	1.0343272	0.039615332	0.11820884	0.98254093	0.21849094	-0.037049308	0.88672358	0.06376636	0.15187798	1.0108286	0.21428835	0.056976921	0.90239701	0.10450308	0.062669915	0.90138615	0.21742548	0.0063907674	0.81774427	0.050270755	0.10045532	1.2248226	0.54662958	-0.051140142	1.0147895	0.50478599	0.22338558	1.2302613	0.53886799	0.074457897	0.99847312	0.49715382	0.097077912	1.0160708	0.90272631	-0.087341679	0.99630879	0.91335987	0.28519998	1.0792658	0.99432455	-0.028254357	1.0888268	0.99989388	0.21038916	0.91344251	1.0446209	0.090735764	1.0587182	1.4458103	-0.080537088	1.0596963	1.4577965	0.25147127	0.99039714	1.4998596	0.088891723	0.89795387	1.1151458	-0.12177282	0.95276448	1.0976103	0.35260903	0.9878435	0.87489342	-0.18148371	1.1952528	0.96593168	0.30162105
384	1.532	1.1080593	0.1060303	-0.001512941	1.0343367	0.039606243	0.11824156	0.99724291	0.21224547	-0.036684342	0.88682655	0.064077345	0.15194436	1.0259097	0.20909143	0.057203802	0.90234609	0.1046642	0.062337614	0.9158787	0.20896956	0.0066344573	0.81776524	0.050739709	0.10061217	1.2313281	0.54690935	-0.051044445	1.0164653	0.50469043	0.22349441	1.2366441	0.53944524	0.074304297	1.0000668	0.4973369	0.096983385	1.0217258	0.90275776	-0.087602614	1.0006433	0.91349693	0.28487353	1.084617	0.9944406	-0.028171087	1.0935889	0.9998631	0.21061853	0.9185981	1.0444989	0.090491495	1.0633212	1.4457809	-0.080554732	1.064631	1.457898	0.25152214	0.99522415	1.4998411	0.089059174	0.90163469	1.1157052	-0.12202485	0.95845206	1.0972407	0.35263689	0.99044104	0.87525125	-0.18255609	1.2019784	0.9676969	0.30060687
